<?xml version="1.0" encoding="utf-8"?>
<!-- Generated by Mocodo 4.1.1 -->
<svg width="398" height="406" viewBox="0 0 398 406" xmlns="http://www.w3.org/2000/svg">
<rect x="0" y="0" width="398" height="406" fill="#f7f7f7" stroke="none" stroke-width="0"/>

<!-- Association POSSEDER -->
<g>
	<line x1="337" y1="60" x2="186" y2="60" stroke="#9970ab" stroke-width="2"/>
	<line x1="186" y1="212" x2="186" y2="60" stroke="#9970ab" stroke-width="2"/>
	<g>
		<path d="M207 35 a14 14 90 0 1 14 14 V60 h-70 V49 a14 14 90 0 1 14 -14" fill="#c2a5cf" stroke="#c2a5cf" stroke-width="0"/>
		<path d="M221 60 v11 a14 14 90 0 1 -14 14 H165 a14 14 90 0 1 -14 -14 V60 H70" fill="#e7d4e8" stroke="#e7d4e8" stroke-width="0"/>
		<rect x="151" y="35" width="70" height="50" fill="none" rx="14" stroke="#9970ab" stroke-width="2"/>
		<line x1="151" y1="60" x2="221" y2="60" stroke="#9970ab" stroke-width="1"/>
		<text x="159" y="52.75" fill="#000000" font-family="Verdana" font-size="12">posséder</text>
	</g>
	<text x="258" y="77" fill="#1b7837" font-family="Verdana" font-size="12">0,N</text>
	<text x="191" y="128" fill="#1b7837" font-family="Verdana" font-size="12">1,1</text>
</g>

<!-- Association AVOIR -->
<g>
	<line x1="186" y1="212" x2="51" y2="212" stroke="#9970ab" stroke-width="2"/>
	<line x1="51" y1="60" x2="51" y2="212" stroke="#9970ab" stroke-width="2"/>
	<g>
		<path d="M60 187 a14 14 90 0 1 14 14 V212 h-46 V201 a14 14 90 0 1 14 -14" fill="#c2a5cf" stroke="#c2a5cf" stroke-width="0"/>
		<path d="M74 212 v11 a14 14 90 0 1 -14 14 H42 a14 14 90 0 1 -14 -14 V212 H46" fill="#e7d4e8" stroke="#e7d4e8" stroke-width="0"/>
		<rect x="28" y="187" width="46" height="50" fill="none" rx="14" stroke="#9970ab" stroke-width="2"/>
		<line x1="28" y1="212" x2="74" y2="212" stroke="#9970ab" stroke-width="1"/>
		<text x="36" y="204.75" fill="#000000" font-family="Verdana" font-size="12">avoir</text>
	</g>
	<text x="80" y="229" fill="#1b7837" font-family="Verdana" font-size="12">1,1</text>
	<text x="56" y="111" fill="#1b7837" font-family="Verdana" font-size="12">0,N</text>
</g>

<!-- Association APPARTENIR -->
<g>
	<line x1="186" y1="212" x2="337" y2="212" stroke="#9970ab" stroke-width="2"/>
	<line x1="337" y1="355" x2="337" y2="212" stroke="#9970ab" stroke-width="2"/>
	<g>
		<path d="M362 187 a14 14 90 0 1 14 14 V212 h-78 V201 a14 14 90 0 1 14 -14" fill="#c2a5cf" stroke="#c2a5cf" stroke-width="0"/>
		<path d="M376 212 v11 a14 14 90 0 1 -14 14 H312 a14 14 90 0 1 -14 -14 V212 H78" fill="#e7d4e8" stroke="#e7d4e8" stroke-width="0"/>
		<rect x="298" y="187" width="78" height="50" fill="none" rx="14" stroke="#9970ab" stroke-width="2"/>
		<line x1="298" y1="212" x2="376" y2="212" stroke="#9970ab" stroke-width="1"/>
		<text x="306" y="204.75" fill="#000000" font-family="Verdana" font-size="12">appartenir</text>
	</g>
	<text x="271" y="229" fill="#1b7837" font-family="Verdana" font-size="12">1,1</text>
	<text x="342" y="313" fill="#1b7837" font-family="Verdana" font-size="12">0,N</text>
</g>

<!-- Association ECRIRE -->
<g>
	<line x1="51" y1="355" x2="186" y2="355" stroke="#9970ab" stroke-width="2"/>
	<line x1="186" y1="212" x2="186" y2="355" stroke="#9970ab" stroke-width="2"/>
	<g>
		<path d="M197 330 a14 14 90 0 1 14 14 V355 h-50 V344 a14 14 90 0 1 14 -14" fill="#c2a5cf" stroke="#c2a5cf" stroke-width="0"/>
		<path d="M211 355 v11 a14 14 90 0 1 -14 14 H175 a14 14 90 0 1 -14 -14 V355 H50" fill="#e7d4e8" stroke="#e7d4e8" stroke-width="0"/>
		<rect x="161" y="330" width="50" height="50" fill="none" rx="14" stroke="#9970ab" stroke-width="2"/>
		<line x1="161" y1="355" x2="211" y2="355" stroke="#9970ab" stroke-width="1"/>
		<text x="169" y="347.75" fill="#000000" font-family="Verdana" font-size="12">écrire</text>
	</g>
	<text x="98" y="372" fill="#1b7837" font-family="Verdana" font-size="12">0,N</text>
	<text x="191" y="305" fill="#1b7837" font-family="Verdana" font-size="12">1,1</text>
</g>

<!-- Entity STATUT -->
<g>
	<g>
		<rect x="11" y="26" width="80" height="25" fill="#a6dba0" stroke="none" stroke-width="0" opacity="1"/>
		<rect x="11" y="51" width="80" height="43" fill="#d9f0d3" stroke="none" stroke-width="0" opacity="1"/>
		<rect x="11" y="26" width="80" height="68" fill="none" stroke="#5aae61" stroke-width="2" opacity="1"/>
		<line x1="11" y1="51" x2="91" y2="51" stroke="#5aae61" stroke-width="1"/>
	</g>
	<text x="33" y="43.75" fill="#000000" font-family="Verdana" font-size="12">statut</text>
	<text x="16" y="68.8" fill="#000000" font-family="Verdana" font-size="12">code statut</text>
	<line x1="16" y1="71" x2="85" y2="71" stroke="#000000" stroke-width="1"/>
	<text x="16" y="85.8" fill="#000000" font-family="Verdana" font-size="12">description</text>
</g>

<!-- Entity UTILISATEUR -->
<g>
	<g>
		<rect x="285" y="9" width="104" height="25" fill="#a6dba0" stroke="none" stroke-width="0" opacity="1"/>
		<rect x="285" y="34" width="104" height="77" fill="#d9f0d3" stroke="none" stroke-width="0" opacity="1"/>
		<rect x="285" y="9" width="104" height="102" fill="none" stroke="#5aae61" stroke-width="2" opacity="1"/>
		<line x1="285" y1="34" x2="389" y2="34" stroke="#5aae61" stroke-width="1"/>
	</g>
	<text x="307" y="26.75" fill="#000000" font-family="Verdana" font-size="12">utilisateur</text>
	<text x="290" y="51.8" fill="#000000" font-family="Verdana" font-size="12">code utilisateur</text>
	<line x1="290" y1="54" x2="384" y2="54" stroke="#000000" stroke-width="1"/>
	<text x="290" y="68.8" fill="#000000" font-family="Verdana" font-size="12">pseudo</text>
	<text x="290" y="85.8" fill="#000000" font-family="Verdana" font-size="12">email</text>
	<text x="290" y="102.8" fill="#000000" font-family="Verdana" font-size="12">mot de passe</text>
</g>

<!-- Entity LIVRE -->
<g>
	<g>
		<rect x="106" y="136" width="160" height="25" fill="#a6dba0" stroke="none" stroke-width="0" opacity="1"/>
		<rect x="106" y="161" width="160" height="127" fill="#d9f0d3" stroke="none" stroke-width="0" opacity="1"/>
		<rect x="106" y="136" width="160" height="152" fill="none" stroke="#5aae61" stroke-width="2" opacity="1"/>
		<line x1="106" y1="161" x2="266" y2="161" stroke="#5aae61" stroke-width="1"/>
	</g>
	<text x="173" y="153.75" fill="#000000" font-family="Verdana" font-size="12">livre</text>
	<text x="111" y="178.8" fill="#000000" font-family="Verdana" font-size="12">code livre</text>
	<line x1="111" y1="181" x2="170" y2="181" stroke="#000000" stroke-width="1"/>
	<text x="111" y="195.8" fill="#000000" font-family="Verdana" font-size="12">titre</text>
	<text x="111" y="212.8" fill="#000000" font-family="Verdana" font-size="12">description</text>
	<text x="111" y="229.8" fill="#000000" font-family="Verdana" font-size="12">date de début de lecture</text>
	<text x="111" y="246.8" fill="#000000" font-family="Verdana" font-size="12">date de fin de lecture</text>
	<text x="111" y="263.8" fill="#000000" font-family="Verdana" font-size="12">nombre de pages</text>
	<text x="111" y="280.8" fill="#000000" font-family="Verdana" font-size="12">note sur 5</text>
</g>

<!-- Entity AUTEUR -->
<g>
	<g>
		<rect x="9" y="313" width="84" height="25" fill="#a6dba0" stroke="none" stroke-width="0" opacity="1"/>
		<rect x="9" y="338" width="84" height="59" fill="#d9f0d3" stroke="none" stroke-width="0" opacity="1"/>
		<rect x="9" y="313" width="84" height="84" fill="none" stroke="#5aae61" stroke-width="2" opacity="1"/>
		<line x1="9" y1="338" x2="93" y2="338" stroke="#5aae61" stroke-width="1"/>
	</g>
	<text x="31" y="330.75" fill="#000000" font-family="Verdana" font-size="12">auteur</text>
	<text x="14" y="355.8" fill="#000000" font-family="Verdana" font-size="12">code auteur</text>
	<line x1="14" y1="358" x2="87" y2="358" stroke="#000000" stroke-width="1"/>
	<text x="14" y="372.8" fill="#000000" font-family="Verdana" font-size="12">nom</text>
	<text x="14" y="389.8" fill="#000000" font-family="Verdana" font-size="12">prénom</text>
</g>

<!-- Entity CATEGORIE -->
<g>
	<g>
		<rect x="287" y="321" width="100" height="25" fill="#a6dba0" stroke="none" stroke-width="0" opacity="1"/>
		<rect x="287" y="346" width="100" height="43" fill="#d9f0d3" stroke="none" stroke-width="0" opacity="1"/>
		<rect x="287" y="321" width="100" height="68" fill="none" stroke="#5aae61" stroke-width="2" opacity="1"/>
		<line x1="287" y1="346" x2="387" y2="346" stroke="#5aae61" stroke-width="1"/>
	</g>
	<text x="309" y="338.75" fill="#000000" font-family="Verdana" font-size="12">catégorie</text>
	<text x="292" y="363.8" fill="#000000" font-family="Verdana" font-size="12">code catégorie</text>
	<line x1="292" y1="366" x2="381" y2="366" stroke="#000000" stroke-width="1"/>
	<text x="292" y="380.8" fill="#000000" font-family="Verdana" font-size="12">nom</text>
</g>
</svg>